<svg width="126" height="113" viewBox="0 0 126 113" fill="none" xmlns="http://www.w3.org/2000/svg">
<rect x="96.5" y="81.5" width="29" height="29" fill="#C4C4C4" stroke="white"/>
<rect x="96.5" y="0.5" width="29" height="29" fill="#C4C4C4" stroke="white"/>
<rect x="96.5" y="41.5" width="29" height="29" fill="#C4C4C4" stroke="white"/>
<rect x="48.5" y="83.5" width="29" height="29" fill="#C4C4C4" stroke="white"/>
<rect x="48.5" y="2.5" width="29" height="29" fill="#C4C4C4" stroke="white"/>
<rect x="48.5" y="43.5" width="29" height="29" fill="#C4C4C4" stroke="white"/>
<rect x="0.5" y="83.5" width="29" height="29" fill="#C4C4C4" stroke="white"/>
<rect x="0.5" y="2.5" width="29" height="29" fill="#C4C4C4" stroke="white"/>
<rect x="0.5" y="43.5" width="29" height="29" fill="#C4C4C4" stroke="white"/>
<path d="M21.4648 27H9.76953V24.6797L15.2891 18.7969C16.0469 17.9688 16.6055 17.2461 16.9648 16.6289C17.332 16.0117 17.5156 15.4258 17.5156 14.8711C17.5156 14.1133 17.3242 13.5195 16.9414 13.0898C16.5586 12.6523 16.0117 12.4336 15.3008 12.4336C14.5352 12.4336 13.9297 12.6992 13.4844 13.2305C13.0469 13.7539 12.8281 14.4453 12.8281 15.3047H9.42969C9.42969 14.2656 9.67578 13.3164 10.168 12.457C10.668 11.5977 11.3711 10.9258 12.2773 10.4414C13.1836 9.94922 14.2109 9.70312 15.3594 9.70312C17.1172 9.70312 18.4805 10.125 19.4492 10.9688C20.4258 11.8125 20.9141 13.0039 20.9141 14.543C20.9141 15.3867 20.6953 16.2461 20.2578 17.1211C19.8203 17.9961 19.0703 19.0156 18.0078 20.1797L14.1289 24.2695H21.4648V27Z" fill="white"/>
<path d="M67.8906 53.4727C67.8906 54.3008 67.6836 55.0352 67.2695 55.6758C66.8555 56.3164 66.2852 56.8281 65.5586 57.2109C66.3867 57.6094 67.043 58.1602 67.5273 58.8633C68.0117 59.5586 68.2539 60.3789 68.2539 61.3242C68.2539 62.8398 67.7383 64.0391 66.707 64.9219C65.6758 65.7969 64.2734 66.2344 62.5 66.2344C60.7266 66.2344 59.3203 65.793 58.2812 64.9102C57.2422 64.0273 56.7227 62.832 56.7227 61.3242C56.7227 60.3789 56.9648 59.5547 57.4492 58.8516C57.9336 58.1484 58.5859 57.6016 59.4062 57.2109C58.6797 56.8281 58.1094 56.3164 57.6953 55.6758C57.2891 55.0352 57.0859 54.3008 57.0859 53.4727C57.0859 52.0195 57.5703 50.8633 58.5391 50.0039C59.5078 49.1367 60.8242 48.7031 62.4883 48.7031C64.1445 48.7031 65.457 49.1328 66.4258 49.9922C67.4023 50.8438 67.8906 52.0039 67.8906 53.4727ZM64.8555 61.0781C64.8555 60.3359 64.6406 59.7422 64.2109 59.2969C63.7812 58.8516 63.2031 58.6289 62.4766 58.6289C61.7578 58.6289 61.1836 58.8516 60.7539 59.2969C60.3242 59.7344 60.1094 60.3281 60.1094 61.0781C60.1094 61.8047 60.3203 62.3906 60.7422 62.8359C61.1641 63.2812 61.75 63.5039 62.5 63.5039C63.2344 63.5039 63.8086 63.2891 64.2227 62.8594C64.6445 62.4297 64.8555 61.8359 64.8555 61.0781ZM64.5039 53.6367C64.5039 52.9727 64.3281 52.4414 63.9766 52.043C63.625 51.6367 63.1289 51.4336 62.4883 51.4336C61.8555 51.4336 61.3633 51.6289 61.0117 52.0195C60.6602 52.4102 60.4844 52.9492 60.4844 53.6367C60.4844 54.3164 60.6602 54.8633 61.0117 55.2773C61.3633 55.6914 61.8594 55.8984 62.5 55.8984C63.1406 55.8984 63.6328 55.6914 63.9766 55.2773C64.3281 54.8633 64.5039 54.3164 64.5039 53.6367Z" fill="white"/>
<path d="M19.7891 99.5781H21.7227V102.309H19.7891V106H16.4023V102.309H9.40625L9.25391 100.176L16.3672 88.9375H19.7891V99.5781ZM12.6289 99.5781H16.4023V93.5547L16.1797 93.9414L12.6289 99.5781Z" fill="white"/>
</svg>
