<svg width="126" height="111" viewBox="0 0 126 111" fill="none" xmlns="http://www.w3.org/2000/svg">
<rect x="97" y="82" width="28" height="28" stroke="white" stroke-width="2"/>
<rect x="97" y="1" width="28" height="28" stroke="white" stroke-width="2"/>
<rect x="97" y="42" width="28" height="28" stroke="white" stroke-width="2"/>
<rect x="49" y="82" width="28" height="28" stroke="white" stroke-width="2"/>
<rect x="49" y="1" width="28" height="28" stroke="white" stroke-width="2"/>
<rect x="49" y="42" width="28" height="28" stroke="white" stroke-width="2"/>
<rect x="1" y="82" width="28" height="28" stroke="white" stroke-width="2"/>
<rect x="1" y="1" width="28" height="28" stroke="white" stroke-width="2"/>
<rect x="1" y="42" width="28" height="28" stroke="white" stroke-width="2"/>
<path d="M58.7373 49.2031H61.374V58.0625C61.374 58.877 61.1924 59.5977 60.8291 60.2246C60.4717 60.8457 59.9648 61.3262 59.3086 61.666C58.6523 62.0059 57.9111 62.1758 57.085 62.1758C55.7314 62.1758 54.6768 61.833 53.9209 61.1475C53.165 60.4561 52.7871 59.4805 52.7871 58.2207H55.4414C55.4414 58.8477 55.5732 59.3105 55.8369 59.6094C56.1006 59.9082 56.5166 60.0576 57.085 60.0576C57.5889 60.0576 57.9902 59.8848 58.2891 59.5391C58.5879 59.1934 58.7373 58.7012 58.7373 58.0625V49.2031ZM70.2686 58.6426C70.2686 58.1445 70.0928 57.7637 69.7412 57.5C69.3896 57.2305 68.7568 56.9492 67.8428 56.6562C66.9287 56.3574 66.2051 56.0645 65.6719 55.7773C64.2188 54.9922 63.4922 53.9346 63.4922 52.6045C63.4922 51.9131 63.6855 51.2979 64.0723 50.7588C64.4648 50.2139 65.0244 49.7891 65.751 49.4844C66.4834 49.1797 67.3037 49.0273 68.2119 49.0273C69.126 49.0273 69.9404 49.1943 70.6553 49.5283C71.3701 49.8564 71.9238 50.3223 72.3164 50.9258C72.7148 51.5293 72.9141 52.2148 72.9141 52.9824H70.2773C70.2773 52.3965 70.0928 51.9424 69.7236 51.6201C69.3545 51.292 68.8359 51.1279 68.168 51.1279C67.5234 51.1279 67.0225 51.2656 66.665 51.541C66.3076 51.8105 66.1289 52.168 66.1289 52.6133C66.1289 53.0293 66.3369 53.3779 66.7529 53.6592C67.1748 53.9404 67.793 54.2041 68.6074 54.4502C70.1074 54.9014 71.2002 55.4609 71.8857 56.1289C72.5713 56.7969 72.9141 57.6289 72.9141 58.625C72.9141 59.7324 72.4951 60.6025 71.6572 61.2354C70.8193 61.8623 69.6914 62.1758 68.2734 62.1758C67.2891 62.1758 66.3926 61.9971 65.584 61.6396C64.7754 61.2764 64.1572 60.7812 63.7295 60.1543C63.3076 59.5273 63.0967 58.8008 63.0967 57.9746H65.7422C65.7422 59.3867 66.5859 60.0928 68.2734 60.0928C68.9004 60.0928 69.3896 59.9668 69.7412 59.7148C70.0928 59.457 70.2686 59.0996 70.2686 58.6426Z" fill="white"/>
<path d="M10.7373 9.20312H13.374V18.0625C13.374 18.877 13.1924 19.5977 12.8291 20.2246C12.4717 20.8457 11.9648 21.3262 11.3086 21.666C10.6523 22.0059 9.91113 22.1758 9.08496 22.1758C7.73145 22.1758 6.67676 21.833 5.9209 21.1475C5.16504 20.4561 4.78711 19.4805 4.78711 18.2207H7.44141C7.44141 18.8477 7.57324 19.3105 7.83691 19.6094C8.10059 19.9082 8.5166 20.0576 9.08496 20.0576C9.58887 20.0576 9.99023 19.8848 10.2891 19.5391C10.5879 19.1934 10.7373 18.7012 10.7373 18.0625V9.20312ZM22.2686 18.6426C22.2686 18.1445 22.0928 17.7637 21.7412 17.5C21.3896 17.2305 20.7568 16.9492 19.8428 16.6562C18.9287 16.3574 18.2051 16.0645 17.6719 15.7773C16.2188 14.9922 15.4922 13.9346 15.4922 12.6045C15.4922 11.9131 15.6855 11.2979 16.0723 10.7588C16.4648 10.2139 17.0244 9.78906 17.751 9.48438C18.4834 9.17969 19.3037 9.02734 20.2119 9.02734C21.126 9.02734 21.9404 9.19434 22.6553 9.52832C23.3701 9.85645 23.9238 10.3223 24.3164 10.9258C24.7148 11.5293 24.9141 12.2148 24.9141 12.9824H22.2773C22.2773 12.3965 22.0928 11.9424 21.7236 11.6201C21.3545 11.292 20.8359 11.1279 20.168 11.1279C19.5234 11.1279 19.0225 11.2656 18.665 11.541C18.3076 11.8105 18.1289 12.168 18.1289 12.6133C18.1289 13.0293 18.3369 13.3779 18.7529 13.6592C19.1748 13.9404 19.793 14.2041 20.6074 14.4502C22.1074 14.9014 23.2002 15.4609 23.8857 16.1289C24.5713 16.7969 24.9141 17.6289 24.9141 18.625C24.9141 19.7324 24.4951 20.6025 23.6572 21.2354C22.8193 21.8623 21.6914 22.1758 20.2734 22.1758C19.2891 22.1758 18.3926 21.9971 17.584 21.6396C16.7754 21.2764 16.1572 20.7812 15.7295 20.1543C15.3076 19.5273 15.0967 18.8008 15.0967 17.9746H17.7422C17.7422 19.3867 18.5859 20.0928 20.2734 20.0928C20.9004 20.0928 21.3896 19.9668 21.7412 19.7148C22.0928 19.457 22.2686 19.0996 22.2686 18.6426Z" fill="white"/>
</svg>
