<svg width="94" height="79" viewBox="0 0 94 79" fill="none" xmlns="http://www.w3.org/2000/svg">
<circle cx="76.5" cy="61.5" r="16" stroke="#FF0000" stroke-width="3"/>
<path d="M75.457 70H71.7422L71.7656 67.2578H75.457C76.3789 67.2578 77.1562 67.0508 77.7891 66.6367C78.4219 66.2148 78.8984 65.6016 79.2188 64.7969C79.5469 63.9922 79.7109 63.0195 79.7109 61.8789V61.0469C79.7109 60.1719 79.6172 59.4023 79.4297 58.7383C79.25 58.0742 78.9805 57.5156 78.6211 57.0625C78.2617 56.6094 77.8203 56.2695 77.2969 56.043C76.7734 55.8086 76.1719 55.6914 75.4922 55.6914H71.6719V52.9375H75.4922C76.6328 52.9375 77.6758 53.1328 78.6211 53.5234C79.5742 53.9062 80.3984 54.457 81.0938 55.1758C81.7891 55.8945 82.3242 56.7539 82.6992 57.7539C83.082 58.7461 83.2734 59.8516 83.2734 61.0703V61.8789C83.2734 63.0898 83.082 64.1953 82.6992 65.1953C82.3242 66.1953 81.7891 67.0547 81.0938 67.7734C80.4062 68.4844 79.582 69.0352 78.6211 69.4258C77.668 69.8086 76.6133 70 75.457 70ZM73.7344 52.9375V70H70.2188V52.9375H73.7344Z" fill="white"/>
<circle cx="17.5" cy="17.5" r="16" stroke="#FF0000" stroke-width="3"/>
<path d="M17.8984 11.8555L13.2578 26H9.51953L15.8594 8.9375H18.2383L17.8984 11.8555ZM21.7539 26L17.1016 11.8555L16.7266 8.9375H19.1289L25.5039 26H21.7539ZM21.543 19.6484V22.4023H12.5312V19.6484H21.543Z" fill="white"/>
<circle cx="17.5" cy="61.5" r="16" stroke="#FF0000" stroke-width="3"/>
<path d="M21.0625 64.3398H24.5664C24.4961 65.4883 24.1797 66.5078 23.6172 67.3984C23.0625 68.2891 22.2852 68.9844 21.2852 69.4844C20.293 69.9844 19.0977 70.2344 17.6992 70.2344C16.6055 70.2344 15.625 70.0469 14.7578 69.6719C13.8906 69.2891 13.1484 68.7422 12.5312 68.0312C11.9219 67.3203 11.457 66.4609 11.1367 65.4531C10.8164 64.4453 10.6562 63.3164 10.6562 62.0664V60.8828C10.6562 59.6328 10.8203 58.5039 11.1484 57.4961C11.4844 56.4805 11.9609 55.6172 12.5781 54.9062C13.2031 54.1953 13.9492 53.6484 14.8164 53.2656C15.6836 52.8828 16.6523 52.6914 17.7227 52.6914C19.1445 52.6914 20.3438 52.9492 21.3203 53.4648C22.3047 53.9805 23.0664 54.6914 23.6055 55.5977C24.1523 56.5039 24.4805 57.5352 24.5898 58.6914H21.0742C21.0352 58.0039 20.8984 57.4219 20.6641 56.9453C20.4297 56.4609 20.0742 56.0977 19.5977 55.8555C19.1289 55.6055 18.5039 55.4805 17.7227 55.4805C17.1367 55.4805 16.625 55.5898 16.1875 55.8086C15.75 56.0273 15.3828 56.3594 15.0859 56.8047C14.7891 57.25 14.5664 57.8125 14.418 58.4922C14.2773 59.1641 14.207 59.9531 14.207 60.8594V62.0664C14.207 62.9492 14.2734 63.7266 14.4062 64.3984C14.5391 65.0625 14.7422 65.625 15.0156 66.0859C15.2969 66.5391 15.6562 66.8828 16.0938 67.1172C16.5391 67.3438 17.0742 67.457 17.6992 67.457C18.4336 67.457 19.0391 67.3398 19.5156 67.1055C19.9922 66.8711 20.3555 66.5234 20.6055 66.0625C20.8633 65.6016 21.0156 65.0273 21.0625 64.3398Z" fill="white"/>
<circle cx="76.5" cy="17.5" r="16" stroke="#00FF00" stroke-width="3"/>
<path d="M77.0391 18.5117H72.6562L72.6328 16.0977H76.3125C76.9609 16.0977 77.4922 16.0156 77.9062 15.8516C78.3203 15.6797 78.6289 15.4336 78.832 15.1133C79.043 14.7852 79.1484 14.3867 79.1484 13.918C79.1484 13.3867 79.0469 12.957 78.8438 12.6289C78.6484 12.3008 78.3398 12.0625 77.918 11.9141C77.5039 11.7656 76.9688 11.6914 76.3125 11.6914H73.875V26H70.3594V8.9375H76.3125C77.3047 8.9375 78.1914 9.03125 78.9727 9.21875C79.7617 9.40625 80.4297 9.69141 80.9766 10.0742C81.5234 10.457 81.9414 10.9414 82.2305 11.5273C82.5195 12.1055 82.6641 12.793 82.6641 13.5898C82.6641 14.293 82.5039 14.9414 82.1836 15.5352C81.8711 16.1289 81.375 16.6133 80.6953 16.9883C80.0234 17.3633 79.1445 17.5703 78.0586 17.6094L77.0391 18.5117ZM76.8867 26H71.6953L73.0664 23.2578H76.8867C77.5039 23.2578 78.0078 23.1602 78.3984 22.9648C78.7891 22.7617 79.0781 22.4883 79.2656 22.1445C79.4531 21.8008 79.5469 21.4062 79.5469 20.9609C79.5469 20.4609 79.4609 20.0273 79.2891 19.6602C79.125 19.293 78.8594 19.0117 78.4922 18.8164C78.125 18.6133 77.6406 18.5117 77.0391 18.5117H73.6523L73.6758 16.0977H77.8945L78.7031 17.0469C79.7422 17.0312 80.5781 17.2148 81.2109 17.5977C81.8516 17.9727 82.3164 18.4609 82.6055 19.0625C82.9023 19.6641 83.0508 20.3086 83.0508 20.9961C83.0508 22.0898 82.8125 23.0117 82.3359 23.7617C81.8594 24.5039 81.1602 25.0625 80.2383 25.4375C79.3242 25.8125 78.207 26 76.8867 26Z" fill="white"/>
</svg>
