<svg width="105" height="59" viewBox="0 0 105 59" fill="none" xmlns="http://www.w3.org/2000/svg">
<path d="M48.183 19.5439C47.979 20.5526 48.018 21.4166 48.2974 22.0414C49.0676 23.7664 51.0967 24.5452 52.8236 23.7739C53.2352 23.5915 53.6066 23.3293 53.9161 23.0025C54.2257 22.6756 54.4673 22.2905 54.627 21.8696C54.7891 21.4496 54.8663 21.0016 54.854 20.5515C54.8418 20.1014 54.7404 19.6582 54.5557 19.2476C54.1444 18.3255 53.6295 17.6153 52.656 17.334C52.5397 17.3003 52.641 16.9099 52.6875 16.7989L53.0025 15.744L50.1525 14.7953C48.87 17.694 48.2385 19.2664 48.183 19.5439V19.5439ZM51.945 18.792C52.1712 18.8429 52.385 18.9381 52.5741 19.0722C52.7632 19.2063 52.9239 19.3765 53.0467 19.5731C53.1705 19.7691 53.2542 19.9878 53.293 20.2163C53.3317 20.4449 53.3248 20.6789 53.2725 20.9048C53.2216 21.1309 53.1264 21.3447 52.9923 21.5339C52.8582 21.723 52.6879 21.8836 52.4914 22.0065C52.2953 22.1302 52.0767 22.2139 51.8481 22.2526C51.6196 22.2914 51.3856 22.2844 51.1597 22.2322C50.9335 22.1813 50.7197 22.086 50.5306 21.9519C50.3415 21.8177 50.1808 21.6474 50.058 21.4508C49.9342 21.2548 49.8506 21.0362 49.8118 20.8077C49.7731 20.5792 49.78 20.3453 49.8322 20.1195C49.8832 19.8933 49.9784 19.6794 50.1126 19.4903C50.2467 19.3012 50.4171 19.1406 50.6137 19.0178C50.8098 18.8941 51.0283 18.8106 51.2568 18.7718C51.4853 18.7331 51.7192 18.7399 51.945 18.792V18.792Z" fill="white"/>
<path d="M52.8784 15.7789L57.4283 4.51237C56.6081 4.773 55.7201 4.97737 54.9908 5.71725C54.0746 6.64725 53.4064 8.11425 53.4064 8.11425C53.4064 8.11425 50.5624 14.31 50.4244 14.6182C50.4191 14.6295 52.8784 15.7789 52.8784 15.7789V15.7789Z" fill="white"/>
<path d="M61.8791 9.1875C61.8791 9.1875 56.1454 11.13 56.3246 11.0441L56.3231 11.0426L54.8434 11.6606L52.9174 16.5229L55.0582 15.4939L55.0586 15.4882C55.0204 15.501 58.5892 13.3725 58.6545 13.3391C60.1635 12.5599 61.2896 11.0351 61.8795 9.18787L61.8791 9.1875Z" fill="white"/>
<path d="M47.1874 12.3315C45.6566 11.6483 43.2874 12.4091 42.6041 13.9391C41.9205 15.4706 42.537 17.8511 44.0677 18.5348C44.622 18.7823 45.546 18.9308 46.4415 18.7496C46.4801 18.7421 47.7041 18.6645 47.5582 18.7594L48.4151 18.3608C48.8569 17.2463 50.1836 14.1071 50.2924 13.8653L49.2656 14.3576L49.2634 14.3621C49.2566 14.4686 47.9591 12.6765 47.1874 12.3315V12.3315ZM47.094 16.2128C46.9754 16.4027 46.8203 16.5672 46.6377 16.6968C46.455 16.8263 46.2485 16.9184 46.0301 16.9676C45.5895 17.0676 45.1273 16.9887 44.7447 16.7484C44.3622 16.508 44.0905 16.1258 43.9894 15.6855C43.9388 15.4673 43.932 15.2413 43.9695 15.0205C44.007 14.7997 44.0879 14.5885 44.2076 14.3993C44.3263 14.2095 44.4814 14.0451 44.664 13.9157C44.8466 13.7862 45.0531 13.6943 45.2715 13.6451C45.4896 13.5947 45.7156 13.588 45.9364 13.6254C46.1572 13.6628 46.3684 13.7435 46.5577 13.863C46.7476 13.9816 46.912 14.1367 47.0416 14.3194C47.1711 14.502 47.2631 14.7085 47.3122 14.9269C47.3627 15.1451 47.3694 15.3711 47.332 15.5919C47.2945 15.8127 47.2136 16.0238 47.094 16.2131V16.2128Z" fill="white"/>
<path d="M50.094 14.8579C51.2407 12.2779 52.5885 9.36637 53.019 8.5335C53.7952 7.029 55.1689 4.71225 57.7215 4.33575L52.974 15.7935" stroke="black" stroke-miterlimit="10" stroke-linecap="round" stroke-linejoin="round"/>
<path d="M54.5482 19.116C54.346 18.6619 54.0467 18.2576 53.6716 17.9315C53.2964 17.6054 52.8544 17.3654 52.3766 17.2282L52.974 15.7935L50.094 14.8579C49.1542 16.9729 48.264 19.0639 48.1845 19.4572C48.0487 20.1274 47.9531 21.0975 48.3112 21.8996C48.6855 22.7188 49.3681 23.3569 50.2105 23.6752C51.053 23.9935 51.987 23.9662 52.8094 23.5991C53.6318 23.2321 54.2759 22.5551 54.6016 21.7155C54.9272 20.8758 54.9081 19.9416 54.5482 19.116V19.116ZM53.217 20.892C53.1671 21.1106 53.0746 21.3172 52.9448 21.5001C52.8151 21.683 52.6505 21.8385 52.4607 21.9577C52.2708 22.077 52.0593 22.1577 51.8382 22.1953C51.6172 22.2328 51.3909 22.2265 51.1723 22.1766C50.9537 22.1267 50.7471 22.0342 50.5642 21.9044C50.3813 21.7746 50.2258 21.6101 50.1065 21.4203C49.9873 21.2304 49.9065 21.0189 49.869 20.7978C49.8315 20.5768 49.8378 20.3505 49.8877 20.1319C49.9885 19.6904 50.2606 19.307 50.644 19.0661C51.0275 18.8252 51.4909 18.7465 51.9324 18.8473C52.3739 18.9481 52.7573 19.2202 52.9982 19.6036C53.2391 19.9871 53.3178 20.4505 53.217 20.892Z" stroke="black" stroke-miterlimit="10" stroke-linecap="round" stroke-linejoin="round"/>
<path d="M48.8899 14.3389C48.7401 13.8914 48.4988 13.48 48.1815 13.1308C47.8643 12.7815 47.4778 12.5021 47.0468 12.3101C46.6372 12.1273 46.1957 12.027 45.7473 12.0149C45.299 12.0028 44.8527 12.0791 44.4339 12.2394C43.588 12.5633 42.9054 13.2099 42.5363 14.037C42.1671 14.8641 42.1417 15.804 42.4655 16.6499C42.7894 17.4958 43.436 18.1784 44.2631 18.5475C45.0656 18.9056 46.0354 18.81 46.7055 18.6742C46.8154 18.6521 47.0423 18.573 47.3588 18.4504L48.8899 14.3389ZM46.0309 16.971C45.8123 17.0209 45.586 17.0273 45.3649 16.9897C45.1439 16.9522 44.9324 16.8715 44.7425 16.7522C44.5526 16.6329 44.3881 16.4774 44.2583 16.2945C44.1286 16.1117 44.0361 15.905 43.9862 15.6864C43.9363 15.4678 43.9299 15.2415 43.9675 15.0205C44.005 14.7994 44.0857 14.5879 44.205 14.3981C44.3243 14.2082 44.4798 14.0437 44.6627 13.9139C44.8455 13.7841 45.0522 13.6917 45.2708 13.6417C45.7122 13.5409 46.1757 13.6197 46.5591 13.8606C46.9426 14.1015 47.2146 14.4848 47.3154 14.9263C47.4162 15.3678 47.3375 15.8312 47.0966 16.2147C46.8557 16.5981 46.4724 16.8702 46.0309 16.971V16.971Z" stroke="black" stroke-miterlimit="10" stroke-linecap="round" stroke-linejoin="round"/>
<path d="M56.4844 11.3801L61.827 9.13688C61.4505 11.6899 59.1338 13.0631 57.6293 13.8401C57.1373 14.094 56.3876 14.475 54.9424 15.1388" stroke="black" stroke-miterlimit="10" stroke-linecap="round" stroke-linejoin="round"/>
<path d="M13.3608 57.8398C6.79641 57.8398 2.21274 53.0157 2.21274 46.1096V39.5326C2.21274 38.9799 3.5775 38.3914 7.40602 38.3914C13.1161 38.3914 21.1634 39.6887 22.7791 40.621C24.7535 41.7622 25.5382 45.751 24.5278 49.5162C23.8591 52.0201 21.427 57.8398 13.3608 57.8398Z" fill="white"/>
<path d="M7.40812 38.7078C13.0781 38.7078 21.0389 39.9798 22.623 40.8952C23.4668 41.3825 24.1334 42.5405 24.4498 44.0698C24.7915 45.7152 24.7113 47.6199 24.2241 49.434C23.8001 51.0181 22.8593 53.273 20.7984 55.0302C18.8536 56.6839 16.3519 57.5234 13.3608 57.5234C10.1334 57.5234 7.38914 56.3717 5.41898 54.1927C3.55641 52.1319 2.53125 49.261 2.53125 46.1096V39.5326C2.53125 39.368 3.3982 38.7078 7.40812 38.7078V38.7078ZM7.40812 38.075C4.25672 38.075 1.89844 38.4716 1.89844 39.5326V46.1096C1.89844 52.7352 6.21844 58.1562 13.3608 58.1562C26.3187 58.1562 27.3333 42.8865 22.9373 40.3468C21.1971 39.3406 13.038 38.075 7.40812 38.075V38.075Z" fill="black"/>
<path d="M15.3204 44.9473C13.8945 44.9473 12.7343 43.7872 12.7343 42.3612V35.7462C12.7343 34.3203 13.8945 33.1602 15.3204 33.1602C16.7463 33.1602 17.9065 34.3203 17.9065 35.7462V42.3612C17.9065 43.7872 16.7463 44.9473 15.3204 44.9473Z" fill="white"/>
<path d="M15.3204 33.4766C16.5712 33.4766 17.5901 34.4954 17.5901 35.7463V42.3591C17.5901 43.61 16.5712 44.6288 15.3204 44.6288C14.0695 44.6288 13.0507 43.61 13.0507 42.3591V35.7463C13.0507 34.4954 14.0695 33.4766 15.3204 33.4766ZM15.3204 32.8438C13.7173 32.8438 12.4179 34.1431 12.4179 35.7463V42.3591C12.4179 43.9623 13.7173 45.2616 15.3204 45.2616C16.9235 45.2616 18.2229 43.9623 18.2229 42.3591V35.7463C18.2229 34.1431 16.9235 32.8438 15.3204 32.8438Z" fill="black"/>
<path d="M20.6381 45.5443C20.5917 45.5443 20.5432 45.5422 20.4947 45.5401C19.8049 45.5021 19.17 45.1984 18.7102 44.6837C18.2503 44.169 18.0162 43.5066 18.0541 42.8169L18.4127 36.2124C18.4866 34.8413 19.6214 33.7677 20.9925 33.7677C21.0389 33.7677 21.0874 33.7698 21.1359 33.7719C21.8257 33.8098 22.4585 34.1136 22.9205 34.6283C23.3824 35.143 23.6145 35.8053 23.5765 36.4951L23.2179 43.0995C23.142 44.4706 22.0092 45.5443 20.6381 45.5443V45.5443Z" fill="white"/>
<path d="M20.9904 34.0841C21.0326 34.0841 21.0748 34.0862 21.117 34.0883C21.7224 34.122 22.2792 34.3878 22.6842 34.8392C23.0892 35.2906 23.2938 35.8728 23.2601 36.4782L22.9015 43.0827C22.8361 44.2871 21.8426 45.23 20.6381 45.23C20.5959 45.23 20.5538 45.2279 20.5116 45.2258C19.9062 45.192 19.3493 44.9262 18.9443 44.4748C18.5393 44.0234 18.3347 43.4412 18.3684 42.8359L18.727 36.2314C18.7924 35.027 19.7881 34.0841 20.9904 34.0841V34.0841ZM20.9904 33.4512C19.459 33.4512 18.1786 34.6494 18.0942 36.1955L17.7356 42.8C17.6491 44.401 18.8747 45.7679 20.4757 45.8565C20.5284 45.8586 20.5833 45.8607 20.636 45.8607C22.1674 45.8607 23.4478 44.6626 23.5322 43.1164L23.8908 36.512C23.9773 34.9109 22.7517 33.5441 21.1507 33.4555C21.098 33.4534 21.0452 33.4512 20.9904 33.4512V33.4512Z" fill="black"/>
<path d="M10.1609 44.6984C8.74969 44.6984 7.58743 43.5931 7.5136 42.182L7.23516 36.7419C7.1993 36.0352 7.43977 35.356 7.91438 34.8287C8.14722 34.5696 8.4291 34.3592 8.74373 34.2097C9.05835 34.0601 9.39949 33.9744 9.74743 33.9575C9.79383 33.9554 9.84024 33.9533 9.88454 33.9533C11.2957 33.9533 12.458 35.0586 12.5318 36.4698L12.8102 41.9098C12.8841 43.3695 11.7577 44.6204 10.2959 44.6942C10.2537 44.6984 10.2073 44.6984 10.1609 44.6984V44.6984Z" fill="white"/>
<path d="M9.88875 33.6369V34.2697C11.1312 34.2697 12.1563 35.2442 12.2196 36.4866L12.4981 41.9267C12.5634 43.2134 11.5699 44.3124 10.2853 44.3799C10.2452 44.382 10.2031 44.382 10.163 44.382C8.92055 44.382 7.8954 43.4075 7.83211 42.1651L7.55368 36.725C7.52204 36.1027 7.73508 35.5037 8.15274 35.0396C8.5704 34.5756 9.14415 34.3034 9.76852 34.2718C9.8086 34.2697 9.85079 34.2697 9.89086 34.2697L9.88875 33.6369V33.6369ZM9.88875 33.6369C9.83813 33.6369 9.7854 33.639 9.73477 33.6411C8.0979 33.7255 6.8386 35.1198 6.92086 36.7588L7.1993 42.1988C7.27946 43.7851 8.59149 45.017 10.1609 45.017C10.2115 45.017 10.2642 45.0148 10.3148 45.0127C11.9517 44.9284 13.211 43.5341 13.1288 41.8951L12.8503 36.455C12.7702 34.8688 11.4581 33.6369 9.88875 33.6369V33.6369Z" fill="black"/>
<path d="M4.89165 45.3312C3.49735 45.3312 2.34352 44.2407 2.26547 42.8464L2.03133 38.6973C1.94907 37.2481 3.06282 36.0015 4.51196 35.9192C4.56258 35.9171 4.61321 35.915 4.66172 35.915C6.05602 35.915 7.20985 37.0055 7.28789 38.3998L7.52204 42.549C7.56211 43.2514 7.32586 43.9264 6.85758 44.4516C6.61109 44.7294 6.30829 44.9515 5.96932 45.1031C5.63036 45.2548 5.26299 45.3326 4.89165 45.3312V45.3312Z" fill="white"/>
<path d="M4.66383 35.6007V36.2335C5.88937 36.2335 6.90398 37.1933 6.97359 38.4188L7.20773 42.568C7.27945 43.8441 6.3007 44.9389 5.02453 45.0106C4.98023 45.0127 4.93594 45.0148 4.89164 45.0148C3.66609 45.0148 2.65148 44.0551 2.58187 42.8295L2.34773 38.6804C2.31187 38.0623 2.5207 37.4675 2.93203 37.0077C3.34336 36.5457 3.91078 36.2736 4.52883 36.2377C4.57312 36.2356 4.61742 36.2335 4.66172 36.2335L4.66383 35.6007V35.6007ZM4.66383 35.6007C4.60898 35.6007 4.55203 35.6028 4.49508 35.6049C2.86875 35.6956 1.62422 37.0899 1.71703 38.7162L1.95117 42.8633C2.03976 44.4327 3.34125 45.6455 4.89375 45.6455C4.94859 45.6455 5.00554 45.6434 5.0625 45.6413C6.68883 45.5485 7.93336 44.1563 7.84054 42.53L7.6064 38.3809C7.5157 36.8136 6.21633 35.6007 4.66383 35.6007V35.6007Z" fill="black"/>
<path d="M22.0894 47.2592C20.887 46.9871 19.5856 46.9259 18.4739 47.5419C17.3306 48.1726 16.7949 49.377 16.3962 50.5604C16.2654 50.9464 16.8771 51.113 17.0058 50.7291C17.3538 49.6998 17.7926 48.643 18.7924 48.0882C19.7522 47.5566 20.8892 47.6347 21.9206 47.8688C22.3172 47.9595 22.486 47.3499 22.0894 47.2592Z" fill="black"/>
<path d="M21.7962 50.4739C20.9714 50.4591 19.8809 49.3791 19.1426 47.8456C18.6405 46.8015 17.7525 46.1054 15.0504 46.1054C14.3859 46.1054 13.6329 46.1455 12.7491 46.2256C12.6816 46.232 12.6141 46.2341 12.5466 46.2341C11.4771 46.2341 10.3823 45.5211 10.0027 44.5761C9.77063 43.9981 9.75164 43.0932 10.1651 42.4815C10.4541 42.0554 10.9034 41.8381 11.5024 41.8381C12.3968 41.8381 17.4656 41.277 18.0837 41.2074C19.9188 41.642 24.5426 43.1628 24.7366 45.1836C24.9434 47.3415 24.6649 48.856 23.9119 49.685C23.433 50.2123 22.7665 50.4697 21.8763 50.4697L21.7962 50.4739V50.4739Z" fill="white"/>
<path d="M18.0668 41.5323C20.4863 42.1123 24.2684 43.5952 24.4223 45.2195C24.6206 47.2845 24.3696 48.7168 23.6777 49.4783C23.2622 49.936 22.6716 50.1596 21.8763 50.1596H21.8025C21.2034 50.1491 20.1952 49.3053 19.4295 47.7106C18.765 46.329 17.5373 45.7911 15.0525 45.7911C14.3796 45.7911 13.616 45.8312 12.7216 45.9134C12.6647 45.9177 12.6056 45.9219 12.5466 45.9219C11.6142 45.9219 10.6249 45.2806 10.298 44.4622C10.1018 43.9749 10.0807 43.1776 10.4288 42.6629C10.6587 42.3233 11.0109 42.1587 11.5045 42.1587C12.3947 42.1587 17.2505 41.623 18.0668 41.5323V41.5323ZM18.1048 40.891C18.1048 40.891 12.4306 41.5259 11.5045 41.5259C9.56602 41.5259 9.24751 43.5446 9.70946 44.6984C10.144 45.7805 11.3822 46.5547 12.5466 46.5547C12.6246 46.5547 12.7027 46.5505 12.7786 46.5441C13.6624 46.464 14.4113 46.4239 15.0525 46.4239C17.6027 46.4239 18.4001 47.0335 18.8578 47.9848C19.6488 49.628 20.8216 50.7755 21.7899 50.7924H21.8763C25.0952 50.7924 25.283 47.5609 25.0531 45.1604C24.7936 42.4414 18.1048 40.891 18.1048 40.891V40.891Z" fill="black"/>
<g clip-path="url(#clip0_25:52)">
<path d="M98.8125 48.3125C98.8125 48.6275 98.565 48.875 98.25 48.875C96.5513 48.875 95.1337 50.135 94.9087 51.7775C94.875 52.0475 94.6275 52.25 94.3575 52.25C94.02 52.25 93.75 51.9463 93.795 51.6088C93.9405 50.635 94.399 49.7351 95.1013 49.045C95.8035 48.3549 96.7113 47.9122 97.6875 47.7837V35.6562C97.6875 35.2833 97.5393 34.9256 97.2756 34.6619C97.0119 34.3982 96.6542 34.25 96.2812 34.25C95.9083 34.25 95.5506 34.3982 95.2869 34.6619C95.0232 34.9256 94.875 35.2833 94.875 35.6562V43.8125C94.875 44.1275 94.6275 44.375 94.3125 44.375C93.9975 44.375 93.75 44.1275 93.75 43.8125V33.4062C93.75 33.0333 93.6018 32.6756 93.3381 32.4119C93.0744 32.1482 92.7167 32 92.3438 32C91.9708 32 91.6131 32.1482 91.3494 32.4119C91.0857 32.6756 90.9375 33.0333 90.9375 33.4062V43.8125C90.9375 44.1275 90.69 44.375 90.375 44.375C90.06 44.375 89.8125 44.1275 89.8125 43.8125V35.0938C89.8125 34.7208 89.6643 34.3631 89.4006 34.0994C89.1369 33.8357 88.7792 33.6875 88.4062 33.6875C88.0333 33.6875 87.6756 33.8357 87.4119 34.0994C87.1482 34.3631 87 34.7208 87 35.0938V44.9375C87 45.2525 86.7525 45.5 86.4375 45.5C86.1225 45.5 85.875 45.2525 85.875 44.9375V38.4688C85.875 38.0958 85.7268 37.7381 85.4631 37.4744C85.1994 37.2107 84.8417 37.0625 84.4688 37.0625C84.0958 37.0625 83.7381 37.2107 83.4744 37.4744C83.2107 37.7381 83.0625 38.0958 83.0625 38.4688V49.7188C83.0625 54.8487 87.2138 59 92.3438 59C97.4737 59 101.625 54.8487 101.625 49.7188V42.4062C101.625 42.0333 101.477 41.6756 101.213 41.4119C100.949 41.1482 100.592 41 100.219 41C99.8458 41 99.4881 41.1482 99.2244 41.4119C98.9607 41.6756 98.8125 42.0333 98.8125 42.4062V48.3125Z" fill="white"/>
</g>
<defs>
<clipPath id="clip0_25:52">
<rect width="27" height="27" fill="white" transform="translate(78 32)"/>
</clipPath>
</defs>
</svg>
