<svg width="100" height="100" viewBox="0 0 100 100" fill="none" xmlns="http://www.w3.org/2000/svg">
<path d="M45.6044 85.9539C45.3022 87.4483 45.36 88.7283 45.7739 89.6539C46.915 92.2094 49.9211 93.3633 52.4794 92.2206C53.0892 91.9504 53.6393 91.562 54.0979 91.0777C54.5565 90.5935 54.9145 90.023 55.1511 89.3995C55.3912 88.7772 55.5056 88.1134 55.4875 87.4467C55.4693 86.7799 55.3191 86.1233 55.0455 85.515C54.4361 84.1489 53.6733 83.0967 52.2311 82.68C52.0589 82.63 52.2089 82.0517 52.2778 81.8872L52.7444 80.3245L48.5222 78.9189C46.6222 83.2133 45.6866 85.5428 45.6044 85.9539V85.9539ZM51.1778 84.84C51.5128 84.9154 51.8296 85.0565 52.1098 85.2551C52.3899 85.4538 52.6279 85.706 52.81 85.9972C52.9934 86.2876 53.1174 86.6115 53.1748 86.9501C53.2322 87.2887 53.2219 87.6354 53.1444 87.97C53.069 88.3051 52.9279 88.6219 52.7293 88.902C52.5307 89.1822 52.2784 89.4202 51.9872 89.6022C51.6968 89.7855 51.3729 89.9094 51.0343 89.9668C50.6957 90.0242 50.349 90.014 50.0144 89.9367C49.6793 89.8612 49.3625 89.72 49.0823 89.5213C48.8022 89.3226 48.5642 89.0702 48.3822 88.7789C48.1989 88.4886 48.0749 88.1648 48.0175 87.8263C47.9601 87.4877 47.9704 87.1412 48.0478 86.8067C48.1232 86.4716 48.2644 86.1547 48.4631 85.8746C48.6618 85.5944 48.9142 85.3564 49.2055 85.1745C49.4959 84.9913 49.8197 84.8675 50.1582 84.8101C50.4967 84.7527 50.8432 84.7629 51.1778 84.84V84.84Z" fill="white"/>
<path d="M52.5606 80.3761L59.3011 63.685C58.0861 64.0711 56.7706 64.3739 55.69 65.47C54.3328 66.8478 53.3428 69.0211 53.3428 69.0211C53.3428 69.0211 49.1294 78.2 48.925 78.6567C48.9172 78.6733 52.5606 80.3761 52.5606 80.3761V80.3761Z" fill="white"/>
<path d="M65.895 70.6111C65.895 70.6111 57.4005 73.4889 57.6661 73.3617L57.6639 73.3594L55.4717 74.275L52.6183 81.4783L55.79 79.9539L55.7905 79.9456C55.7339 79.9644 61.0211 76.8111 61.1178 76.7617C63.3533 75.6072 65.0217 73.3483 65.8955 70.6117L65.895 70.6111Z" fill="white"/>
<path d="M44.1294 75.2689C41.8617 74.2567 38.3517 75.3839 37.3394 77.6506C36.3267 79.9194 37.24 83.4461 39.5078 84.4589C40.3289 84.8256 41.6978 85.0456 43.0244 84.7772C43.0817 84.7661 44.895 84.6511 44.6789 84.7917L45.9483 84.2011C46.6028 82.55 48.5683 77.8994 48.7294 77.5411L47.2083 78.2706L47.205 78.2772C47.195 78.435 45.2728 75.78 44.1294 75.2689V75.2689ZM43.9911 81.0189C43.8154 81.3003 43.5856 81.544 43.3151 81.7359C43.0445 81.9279 42.7386 82.0643 42.415 82.1372C41.7623 82.2853 41.0775 82.1684 40.5107 81.8124C39.944 81.4563 39.5416 80.8901 39.3917 80.2378C39.3167 79.9146 39.3067 79.5797 39.3622 79.2526C39.4177 78.9255 39.5376 78.6126 39.715 78.3322C39.8908 78.0511 40.1206 77.8076 40.3912 77.6158C40.6617 77.424 40.9676 77.2878 41.2911 77.215C41.6143 77.1403 41.9491 77.1303 42.2762 77.1857C42.6032 77.2411 42.9161 77.3608 43.1967 77.5378C43.4779 77.7135 43.7216 77.9433 43.9134 78.2139C44.1053 78.4844 44.2416 78.7903 44.3144 79.1139C44.3892 79.4371 44.3992 79.772 44.3437 80.0991C44.2882 80.4262 44.1683 80.739 43.9911 81.0194V81.0189Z" fill="white"/>
<path d="M48.4355 79.0117C50.1344 75.1894 52.1311 70.8761 52.7689 69.6422C53.9189 67.4133 55.9539 63.9811 59.7355 63.4233L52.7022 80.3978" stroke="black" stroke-miterlimit="10" stroke-linecap="round" stroke-linejoin="round"/>
<path d="M55.0344 85.32C54.7347 84.6473 54.2914 84.0483 53.7357 83.5652C53.1799 83.0821 52.525 82.7265 51.8172 82.5233L52.7022 80.3978L48.4355 79.0117C47.0433 82.145 45.7244 85.2428 45.6066 85.8256C45.4055 86.8183 45.2639 88.2556 45.7944 89.4439C46.3488 90.6574 47.3601 91.6028 48.6082 92.0744C49.8562 92.5459 51.24 92.5054 52.4584 91.9617C53.6767 91.4179 54.631 90.4149 55.1134 89.171C55.5959 87.9272 55.5675 86.5431 55.0344 85.32V85.32ZM53.0622 87.9511C52.9882 88.275 52.8512 88.5811 52.659 88.852C52.4667 89.1229 52.223 89.3533 51.9417 89.53C51.6605 89.7067 51.3471 89.8263 51.0196 89.8819C50.6921 89.9375 50.3569 89.9281 50.033 89.8542C49.7092 89.7802 49.403 89.6432 49.1321 89.451C48.8612 89.2587 48.6308 89.015 48.4541 88.7337C48.2774 88.4524 48.1578 88.1391 48.1022 87.8116C48.0466 87.4841 48.056 87.1489 48.13 86.825C48.2793 86.1709 48.6823 85.603 49.2504 85.2461C49.8185 84.8892 50.5051 84.7726 51.1591 84.9219C51.8132 85.0713 52.3811 85.4743 52.738 86.0424C53.0949 86.6105 53.2115 87.2971 53.0622 87.9511Z" stroke="black" stroke-miterlimit="10" stroke-linecap="round" stroke-linejoin="round"/>
<path d="M46.6517 78.2428C46.4297 77.5799 46.0723 76.9704 45.6023 76.453C45.1322 75.9356 44.5597 75.5216 43.9211 75.2372C43.3144 74.9664 42.6602 74.8178 41.996 74.7998C41.3319 74.7819 40.6706 74.8949 40.0501 75.1324C38.797 75.6122 37.7857 76.5702 37.2389 77.7955C36.692 79.0209 36.6543 80.4133 37.1341 81.6665C37.6139 82.9197 38.5718 83.9309 39.7972 84.4778C40.9861 85.0083 42.4228 84.8667 43.4155 84.6656C43.5783 84.6328 43.9144 84.5156 44.3833 84.3339L46.6517 78.2428ZM42.4161 82.1422C42.0922 82.2162 41.757 82.2256 41.4295 82.17C41.102 82.1143 40.7887 81.9948 40.5074 81.8181C40.2261 81.6413 39.9824 81.4109 39.7901 81.14C39.5979 80.8691 39.4609 80.563 39.3869 80.2392C39.313 79.9153 39.3036 79.5801 39.3592 79.2526C39.4148 78.9251 39.5344 78.6117 39.7111 78.3304C39.8878 78.0492 40.1182 77.8054 40.3891 77.6132C40.66 77.4209 40.9661 77.2839 41.29 77.21C41.944 77.0607 42.6306 77.1773 43.1987 77.5342C43.7668 77.8911 44.1698 78.459 44.3192 79.1131C44.4685 79.7671 44.3519 80.4537 43.995 81.0218C43.6381 81.5898 43.0702 81.9929 42.4161 82.1422V82.1422Z" stroke="black" stroke-miterlimit="10" stroke-linecap="round" stroke-linejoin="round"/>
<path d="M57.9028 73.8594L65.8178 70.5361C65.26 74.3183 61.8278 76.3528 59.5989 77.5039C58.87 77.88 57.7594 78.4444 55.6183 79.4278" stroke="black" stroke-miterlimit="10" stroke-linecap="round" stroke-linejoin="round"/>
<path d="M29.7937 60.2812C20.0687 60.2812 13.2781 53.1344 13.2781 42.9031V33.1594C13.2781 32.3406 15.3 31.4688 20.9719 31.4688C29.4312 31.4688 41.3531 33.3906 43.7469 34.7719C46.6719 36.4625 47.8344 42.3719 46.3375 47.95C45.3469 51.6594 41.7437 60.2812 29.7937 60.2812Z" fill="white"/>
<path d="M20.975 31.9375C29.375 31.9375 41.1687 33.8219 43.5156 35.1781C44.7656 35.9 45.7531 37.6156 46.2219 39.8812C46.7281 42.3187 46.6094 45.1406 45.8875 47.8281C45.2594 50.175 43.8656 53.5156 40.8125 56.1187C37.9312 58.5687 34.225 59.8125 29.7938 59.8125C25.0125 59.8125 20.9469 58.1062 18.0281 54.8781C15.2688 51.825 13.75 47.5719 13.75 42.9031V33.1594C13.75 32.9156 15.0344 31.9375 20.975 31.9375V31.9375ZM20.975 31C16.3062 31 12.8125 31.5875 12.8125 33.1594V42.9031C12.8125 52.7187 19.2125 60.75 29.7938 60.75C48.9906 60.75 50.4937 38.1281 43.9812 34.3656C41.4031 32.875 29.3156 31 20.975 31V31Z" fill="black"/>
<path d="M32.6969 41.1813C30.5844 41.1813 28.8656 39.4625 28.8656 37.35V27.55C28.8656 25.4375 30.5844 23.7188 32.6969 23.7188C34.8094 23.7188 36.5281 25.4375 36.5281 27.55V37.35C36.5281 39.4625 34.8094 41.1813 32.6969 41.1813Z" fill="white"/>
<path d="M32.6969 24.1875C34.55 24.1875 36.0594 25.6969 36.0594 27.55V37.3469C36.0594 39.2 34.55 40.7094 32.6969 40.7094C30.8438 40.7094 29.3344 39.2 29.3344 37.3469V27.55C29.3344 25.6969 30.8438 24.1875 32.6969 24.1875ZM32.6969 23.25C30.3219 23.25 28.3969 25.175 28.3969 27.55V37.3469C28.3969 39.7219 30.3219 41.6469 32.6969 41.6469C35.0719 41.6469 36.9969 39.7219 36.9969 37.3469V27.55C36.9969 25.175 35.0719 23.25 32.6969 23.25Z" fill="black"/>
<path d="M40.575 42.0656C40.5063 42.0656 40.4344 42.0625 40.3625 42.0594C39.3406 42.0031 38.4 41.5531 37.7188 40.7906C37.0375 40.0281 36.6906 39.0469 36.7469 38.025L37.2781 28.2406C37.3875 26.2094 39.0688 24.6187 41.1 24.6187C41.1688 24.6187 41.2406 24.6219 41.3125 24.625C42.3344 24.6812 43.2719 25.1312 43.9563 25.8937C44.6406 26.6562 44.9844 27.6375 44.9281 28.6594L44.3969 38.4437C44.2844 40.475 42.6063 42.0656 40.575 42.0656V42.0656Z" fill="white"/>
<path d="M41.0969 25.0875C41.1594 25.0875 41.2219 25.0906 41.2844 25.0937C42.1812 25.1437 43.0062 25.5375 43.6062 26.2062C44.2062 26.875 44.5094 27.7375 44.4594 28.6344L43.9281 38.4187C43.8312 40.2031 42.3594 41.6 40.575 41.6C40.5125 41.6 40.45 41.5969 40.3875 41.5937C39.4906 41.5437 38.6656 41.15 38.0656 40.4812C37.4656 39.8125 37.1625 38.95 37.2125 38.0531L37.7437 28.2687C37.8406 26.4844 39.3156 25.0875 41.0969 25.0875V25.0875ZM41.0969 24.15C38.8281 24.15 36.9312 25.925 36.8062 28.2156L36.275 38C36.1469 40.3719 37.9625 42.3969 40.3344 42.5281C40.4125 42.5312 40.4938 42.5344 40.5719 42.5344C42.8406 42.5344 44.7375 40.7594 44.8625 38.4687L45.3937 28.6844C45.5219 26.3125 43.7062 24.2875 41.3344 24.1562C41.2562 24.1531 41.1781 24.15 41.0969 24.15V24.15Z" fill="black"/>
<path d="M25.0531 40.8125C22.9625 40.8125 21.2406 39.175 21.1312 37.0844L20.7187 29.025C20.6656 27.9781 21.0219 26.9719 21.725 26.1906C22.07 25.8068 22.4876 25.4951 22.9537 25.2736C23.4198 25.052 23.9252 24.9251 24.4406 24.9C24.5094 24.8969 24.5781 24.8938 24.6438 24.8938C26.7344 24.8938 28.4563 26.5313 28.5656 28.6219L28.9781 36.6813C29.0875 38.8438 27.4188 40.6969 25.2531 40.8063C25.1906 40.8125 25.1219 40.8125 25.0531 40.8125V40.8125Z" fill="white"/>
<path d="M24.65 24.425V25.3625C26.4906 25.3625 28.0094 26.8063 28.1031 28.6469L28.5156 36.7063C28.6125 38.6125 27.1406 40.2406 25.2375 40.3406C25.1781 40.3438 25.1156 40.3438 25.0563 40.3438C23.2156 40.3438 21.6969 38.9 21.6031 37.0594L21.1906 29C21.1438 28.0781 21.4594 27.1906 22.0781 26.5031C22.6969 25.8156 23.5469 25.4125 24.4719 25.3656C24.5313 25.3625 24.5938 25.3625 24.6531 25.3625L24.65 24.425V24.425ZM24.65 24.425C24.575 24.425 24.4969 24.4281 24.4219 24.4313C21.9969 24.5563 20.1313 26.6219 20.2531 29.05L20.6656 37.1094C20.7844 39.4594 22.7281 41.2844 25.0531 41.2844C25.1281 41.2844 25.2063 41.2812 25.2813 41.2781C27.7063 41.1531 29.5719 39.0875 29.45 36.6594L29.0375 28.6C28.9188 26.25 26.975 24.425 24.65 24.425V24.425Z" fill="black"/>
<path d="M17.2469 41.75C15.1813 41.75 13.4719 40.1344 13.3563 38.0687L13.0094 31.9219C12.8875 29.775 14.5375 27.9281 16.6844 27.8062C16.7594 27.8031 16.8344 27.8 16.9063 27.8C18.9719 27.8 20.6812 29.4156 20.7969 31.4812L21.1437 37.6281C21.2031 38.6687 20.8531 39.6687 20.1594 40.4469C19.7942 40.8583 19.3456 41.1874 18.8434 41.412C18.3413 41.6367 17.797 41.7519 17.2469 41.75V41.75Z" fill="white"/>
<path d="M16.9094 27.3344V28.2719C18.725 28.2719 20.2281 29.6937 20.3312 31.5094L20.6781 37.6562C20.7844 39.5469 19.3344 41.1687 17.4437 41.275C17.3781 41.2781 17.3125 41.2812 17.2469 41.2812C15.4312 41.2812 13.9281 39.8594 13.825 38.0437L13.4781 31.8969C13.425 30.9812 13.7344 30.1 14.3437 29.4187C14.9531 28.7344 15.7937 28.3312 16.7094 28.2781C16.775 28.275 16.8406 28.2719 16.9062 28.2719L16.9094 27.3344V27.3344ZM16.9094 27.3344C16.8281 27.3344 16.7437 27.3375 16.6594 27.3406C14.25 27.475 12.4062 29.5406 12.5437 31.95L12.8906 38.0937C13.0219 40.4187 14.95 42.2156 17.25 42.2156C17.3312 42.2156 17.4156 42.2125 17.5 42.2094C19.9094 42.0719 21.7531 40.0094 21.6156 37.6L21.2687 31.4531C21.1344 29.1312 19.2094 27.3344 16.9094 27.3344V27.3344Z" fill="black"/>
<path d="M42.725 44.6063C40.9438 44.2031 39.0156 44.1125 37.3688 45.025C35.675 45.9594 34.8813 47.7438 34.2906 49.4969C34.0969 50.0688 35.0031 50.3156 35.1938 49.7469C35.7094 48.2219 36.3594 46.6563 37.8406 45.8344C39.2625 45.0469 40.9469 45.1625 42.475 45.5094C43.0625 45.6438 43.3125 44.7406 42.725 44.6063Z" fill="black"/>
<path d="M42.2906 49.3688C41.0687 49.3469 39.4531 47.7469 38.3594 45.475C37.6156 43.9281 36.3 42.8969 32.2969 42.8969C31.3125 42.8969 30.1969 42.9563 28.8875 43.075C28.7875 43.0844 28.6875 43.0875 28.5875 43.0875C27.0031 43.0875 25.3813 42.0312 24.8188 40.6312C24.475 39.775 24.4469 38.4344 25.0594 37.5281C25.4875 36.8969 26.1531 36.575 27.0406 36.575C28.3656 36.575 35.875 35.7438 36.7906 35.6406C39.5094 36.2844 46.3594 38.5375 46.6469 41.5312C46.9531 44.7281 46.5406 46.9719 45.425 48.2C44.7156 48.9812 43.7281 49.3625 42.4094 49.3625L42.2906 49.3688V49.3688Z" fill="white"/>
<path d="M36.7656 36.1219C40.35 36.9812 45.9531 39.1781 46.1813 41.5844C46.475 44.6437 46.1031 46.7656 45.0781 47.8937C44.4625 48.5719 43.5875 48.9031 42.4094 48.9031H42.3C41.4125 48.8875 39.9188 47.6375 38.7844 45.275C37.8 43.2281 35.9813 42.4312 32.3 42.4312C31.3031 42.4312 30.1719 42.4906 28.8469 42.6125C28.7625 42.6187 28.675 42.625 28.5875 42.625C27.2063 42.625 25.7406 41.675 25.2563 40.4625C24.9656 39.7406 24.9344 38.5594 25.45 37.7969C25.7906 37.2937 26.3125 37.05 27.0438 37.05C28.3625 37.05 35.5563 36.2562 36.7656 36.1219V36.1219ZM36.8219 35.1719C36.8219 35.1719 28.4156 36.1125 27.0438 36.1125C24.1719 36.1125 23.7 39.1031 24.3844 40.8125C25.0281 42.4156 26.8625 43.5625 28.5875 43.5625C28.7031 43.5625 28.8188 43.5562 28.9313 43.5469C30.2406 43.4281 31.35 43.3687 32.3 43.3687C36.0781 43.3687 37.2594 44.2719 37.9375 45.6812C39.1094 48.1156 40.8469 49.8156 42.2813 49.8406H42.4094C47.1781 49.8406 47.4563 45.0531 47.1156 41.4969C46.7313 37.4687 36.8219 35.1719 36.8219 35.1719V35.1719Z" fill="black"/>
<g clip-path="url(#clip0_25:52)">
<path d="M84.8333 46.1667C84.8333 46.6333 84.4667 47 84 47C81.4833 47 79.3833 48.8667 79.05 51.3C79 51.7 78.6333 52 78.2333 52C77.7333 52 77.3333 51.55 77.4 51.05C77.6156 49.6074 78.2949 48.2742 79.3352 47.2518C80.3756 46.2295 81.7205 45.5736 83.1667 45.3833V27.4167C83.1667 26.8641 82.9472 26.3342 82.5565 25.9435C82.1658 25.5528 81.6359 25.3333 81.0833 25.3333C80.5308 25.3333 80.0009 25.5528 79.6102 25.9435C79.2195 26.3342 79 26.8641 79 27.4167V39.5C79 39.9667 78.6333 40.3333 78.1667 40.3333C77.7 40.3333 77.3333 39.9667 77.3333 39.5V24.0833C77.3333 23.5308 77.1138 23.0009 76.7231 22.6102C76.3324 22.2195 75.8025 22 75.25 22C74.6975 22 74.1676 22.2195 73.7769 22.6102C73.3862 23.0009 73.1667 23.5308 73.1667 24.0833V39.5C73.1667 39.9667 72.8 40.3333 72.3333 40.3333C71.8667 40.3333 71.5 39.9667 71.5 39.5V26.5833C71.5 26.0308 71.2805 25.5009 70.8898 25.1102C70.4991 24.7195 69.9692 24.5 69.4167 24.5C68.8641 24.5 68.3342 24.7195 67.9435 25.1102C67.5528 25.5009 67.3333 26.0308 67.3333 26.5833V41.1667C67.3333 41.6333 66.9667 42 66.5 42C66.0333 42 65.6667 41.6333 65.6667 41.1667V31.5833C65.6667 31.0308 65.4472 30.5009 65.0565 30.1102C64.6658 29.7195 64.1359 29.5 63.5833 29.5C63.0308 29.5 62.5009 29.7195 62.1102 30.1102C61.7195 30.5009 61.5 31.0308 61.5 31.5833V48.25C61.5 55.85 67.65 62 75.25 62C82.85 62 89 55.85 89 48.25V37.4167C89 36.8641 88.7805 36.3342 88.3898 35.9435C87.9991 35.5528 87.4692 35.3333 86.9167 35.3333C86.3641 35.3333 85.8342 35.5528 85.4435 35.9435C85.0528 36.3342 84.8333 36.8641 84.8333 37.4167V46.1667Z" fill="white"/>
</g>
<circle cx="50" cy="50" r="49" stroke="white" stroke-width="2"/>
<defs>
<clipPath id="clip0_25:52">
<rect width="40" height="40" fill="white" transform="translate(54 22)"/>
</clipPath>
</defs>
</svg>
