<svg width="91" height="79" viewBox="0 0 91 79" fill="none" xmlns="http://www.w3.org/2000/svg">
<path d="M60.5 68.5V77.5H51.5V68.5H60.5ZM61.5 67.5V58.5H70.5V67.5H61.5Z" fill="white" fill-opacity="0.5" stroke="white"/>
<rect x="61.5" y="68.5" width="9" height="9" fill="white" fill-opacity="0.5" stroke="white"/>
<rect x="81.5" y="68.5" width="9" height="9" fill="white" fill-opacity="0.5" stroke="white"/>
<rect x="81.5" y="60.5" width="9" height="9" fill="white" fill-opacity="0.5" stroke="white"/>
<rect x="81.5" y="50.5" width="9" height="9" fill="white" fill-opacity="0.5" stroke="white"/>
<rect x="81.5" y="42.5" width="9" height="9" fill="white" fill-opacity="0.5" stroke="white"/>
<line x1="1" y1="79" x2="1" y2="0.993591" stroke="white"/>
<line x1="90.5" y1="78.0064" x2="90.5" stroke="white"/>
<line x1="1" y1="78.5" x2="91" y2="78.5" stroke="white"/>
<rect x="14.5" y="6.5" width="9" height="9" fill="white" fill-opacity="0.5" stroke="white"/>
<rect x="14.5" y="16.5" width="9" height="9" fill="white" fill-opacity="0.5" stroke="white"/>
<rect x="24.5" y="16.5" width="9" height="9" fill="white" fill-opacity="0.5" stroke="white"/>
<rect x="24.5" y="26.5" width="9" height="9" fill="white" fill-opacity="0.5" stroke="white"/>
</svg>
