<svg width="128" height="88" viewBox="0 0 128 88" fill="none" xmlns="http://www.w3.org/2000/svg">
<line x1="1" y1="60.5" x2="127.097" y2="60.5" stroke="white" stroke-width="5"/>
<line x1="0.951527" y1="29.9718" x2="127.049" y2="29.9718" stroke="white" stroke-width="5"/>
<line x1="91.5" y1="87.0058" x2="91.5" y2="1" stroke="white" stroke-width="5"/>
<line x1="33" y1="87.0029" x2="33" y2="0.997086" stroke="white" stroke-width="5"/>
<path d="M70.7539 44.8555C70.7539 46.5352 70.457 48.0078 69.8633 49.2734C69.2695 50.5391 68.418 51.5156 67.3086 52.2031C66.207 52.8906 64.9414 53.2344 63.5117 53.2344C62.0977 53.2344 60.8359 52.8945 59.7266 52.2148C58.6172 51.5352 57.7578 50.5664 57.1484 49.3086C56.5391 48.043 56.2305 46.5898 56.2227 44.9492V44.1055C56.2227 42.4258 56.5234 40.9492 57.125 39.6758C57.7344 38.3945 58.5898 37.4141 59.6914 36.7344C60.8008 36.0469 62.0664 35.7031 63.4883 35.7031C64.9102 35.7031 66.1719 36.0469 67.2734 36.7344C68.3828 37.4141 69.2383 38.3945 69.8398 39.6758C70.4492 40.9492 70.7539 42.4219 70.7539 44.0938V44.8555ZM67.1914 44.082C67.1914 42.293 66.8711 40.9336 66.2305 40.0039C65.5898 39.0742 64.6758 38.6094 63.4883 38.6094C62.3086 38.6094 61.3984 39.0703 60.7578 39.9922C60.1172 40.9062 59.793 42.25 59.7852 44.0234V44.8555C59.7852 46.5977 60.1055 47.9492 60.7461 48.9102C61.3867 49.8711 62.3086 50.3516 63.5117 50.3516C64.6914 50.3516 65.5977 49.8906 66.2305 48.9688C66.8633 48.0391 67.1836 46.6875 67.1914 44.9141V44.082Z" fill="white"/>
<path d="M10.5 9.82031L13.6992 3.9375H17.7422L12.7734 12.3984L17.8711 21H13.7812L10.5 15.0234L7.21875 21H3.12891L8.22656 12.3984L3.25781 3.9375H7.30078L10.5 9.82031Z" fill="white"/>
</svg>
